#!OML:ASF H:\Male1\Project 1\Capture day 1\Session 1\Male1.ASF
:FULLY-SPECIFIED
:DEGREES
333
root 30.4826 14.961 10.3021 -519.414 -67.6492 -194.221
lowerback 16.2814 0.876868 -2.34846
upperback 10.103 -0.0192486 -0.462907
thorax 1.61347 -0.457352 0.829643
lowerneck 4.27733 -3.63866 1.02039
upperneck -14.0159 -5.43407 -2.12954
head -4.99844 -2.71908 -0.509612
rclavicle -2.70347e-014 -4.41302e-014
rhumerus -26.4243 -32.8278 -47.7133
rradius 29.6208
rwrist -38.0504
rhand -26.6506 -7.12984
rfingers 7.12502
rthumb -0.0826395 -37.1096
lclavicle -2.70347e-014 -4.41302e-014
lhumerus -18.4597 22.2165 24.9019
lradius 34.3389
lwrist 16.1607
lhand -32.7704 32.8186
lfingers 7.12502
lthumb -5.99254 62.7139
rfemur -5.47839 12.267 34.1391
rtibia 43.4677
rfoot -8.97158 -5.37725
rtoes -17.1034
lfemur -29.9428 -10.2508 -12.2856
ltibia 42.0502
lfoot -20.1317 13.31
ltoes -18.7621
334
root 30.0747 14.9715 10.2332 -521.771 -65.8347 -192.324
lowerback 15.9391 0.826593 -2.6428
upperback 10.0552 -0.123401 -0.799984
thorax 1.7432 -0.51825 0.655152
lowerneck 4.55611 -3.02148 1.36
upperneck -13.6897 -4.57908 -2.50304
head -4.94641 -2.28273 -0.728086
rclavicle -2.98177e-014 -1.0138e-014
rhumerus -26.094 -32.5424 -46.1155
rradius 29.8512
rwrist -37.8527
rhand -26.8908 -6.96208
rfingers 7.12502
rthumb -0.314663 -36.9416
lclavicle -2.98177e-014 -1.0138e-014
lhumerus -19.5131 22.6295 24.4056
lradius 33.8581
lwrist 16.3562
lhand -32.1709 33.217
lfingers 7.12502
lthumb -5.41377 63.1278
rfemur -5.879 11.6206 33.9596
rtibia 47.273
rfoot -6.99419 -5.43407
rtoes -22.2713
lfemur -27.9797 -10.6493 -12.7202
ltibia 39.6052
lfoot -19.8979 14.4988
ltoes -17.2709
335
root 29.6742 14.9469 10.1657 -524.029 -64.0023 -190.742
lowerback 15.8229 0.751441 -2.9221
upperback 9.97906 -0.269359 -1.1231
thorax 1.72619 -0.599845 0.493706
lowerneck 4.85202 -2.38977 1.75864
upperneck -13.2956 -3.70056 -2.9434
head -4.87195 -1.8324 -0.979311
rclavicle 4.6615e-014 -1.25234e-014
rhumerus -25.7374 -32.0667 -44.2375
rradius 30.1226
rwrist -37.7214
rhand -27.0747 -6.98676
rfingers 7.12502
rthumb -0.492233 -36.9659
lclavicle 4.6615e-014 -1.25234e-014
lhumerus -20.7798 22.9127 23.6983
lradius 33.5146
lwrist 16.6204
lhand -31.3431 33.6685
lfingers 7.12502
lthumb -4.6144 63.5982
rfemur -6.65971 10.8916 33.8222
rtibia 51.8561
rfoot -5.83909 -6.47585
rtoes -26.4188
lfemur -25.6039 -10.8277 -13.3094
ltibia 38.29
lfoot -20.0159 15.9596
ltoes -15.9299
336
root 29.2837 14.891 10.0986 -525.842 -62.1328 -189.796
lowerback 15.9315 0.700265 -3.35235
upperback 9.87446 -0.419153 -1.47081
thorax 1.56273 -0.689385 0.393842
lowerneck 5.17646 -1.7917 2.18646
upperneck -12.9046 -2.8619 -3.38392
head -4.79737 -1.40222 -1.23313
rclavicle -1.6027e-014 1.54804e-014
rhumerus -25.4157 -31.3455 -42.0969
rradius 30.4604
rwrist -37.6662
rhand -27.1886 -7.21341
rfingers 7.12502
rthumb -0.60222 -37.1923
lclavicle -1.6027e-014 1.54804e-014
lhumerus -22.1413 23.0988 22.8879
lradius 33.2943
lwrist 16.8362
lhand -30.3641 34.0529
lfingers 7.12502
lthumb -3.66908 64.0011
rfemur -7.82917 10.0905 33.5089
rtibia 56.9426
rfoot -5.5421 -8.4575
rtoes -29.4411
lfemur -22.9082 -10.5025 -14.2289
ltibia 37.8613
lfoot -20.5567 17.3793
ltoes -15.9233
337
root 28.9051 14.811 10.0295 -526.936 -60.2266 -189.648
lowerback 16.1669 0.720874 -4.09837
upperback 9.7323 -0.530791 -1.85929
thorax 1.29642 -0.770905 0.4251
lowerneck 5.49715 -1.26383 2.61481
upperneck -12.5678 -2.11442 -3.77997
head -4.7341 -1.01994 -1.46821
rclavicle -3.27995e-015 -1.19271e-014
rhumerus -25.179 -30.3906 -39.7132
rradius 30.8774
rwrist -37.6809
rhand -27.2295 -7.60695
rfingers 7.12502
rthumb -0.641778 -37.5857
lclavicle -3.27995e-015 -1.19271e-014
lhumerus -23.4507 23.272 22.1128
lradius 33.1265
lwrist 16.8985
lhand -29.3237 34.1979
lfingers 7.12502
lthumb -2.66436 64.161
rfemur -9.4887 9.28282 32.8339
rtibia 62.2207
rfoot -6.00587 -11.0642
rtoes -30.9791
lfemur -20.0907 -9.5046 -15.5102
ltibia 37.9471
lfoot -21.4688 18.401
ltoes -17.1165
338
root 28.5372 14.7216 9.95422 -527.412 -58.3717 -190.037
lowerback 16.3926 0.796376 -5.06125
upperback 9.5569 -0.608193 -2.27134
thorax 1.00402 -0.840273 0.54842
lowerneck 5.76433 -0.814556 3.01836
upperneck -12.3209 -1.47181 -4.09268
head -4.68636 -0.694796 -1.66783
rclavicle 3.57812e-014 3.97569e-016
rhumerus -25.051 -29.3173 -37.1421
rradius 31.3554
rwrist -37.6998
rhand -27.2001 -8.10368
rfingers 7.12502
rthumb -0.613317 -38.0825
lclavicle 3.57812e-014 3.97569e-016
lhumerus -24.5982 23.4939 21.477
lradius 32.9578
lwrist 16.7993
lhand -28.404 34.1663
lfingers 7.12502
lthumb -1.77611 64.1386
rfemur -11.7271 8.48445 31.8538
rtibia 67.3115
rfoot -7.08079 -13.7269
rtoes -31.5275
lfemur -17.3498 -7.94144 -16.9294
ltibia 38.1558
lfoot -22.6607 18.955
ltoes -19.2593
339
root 28.1778 14.6385 9.8686 -527.344 -56.6473 -190.798
lowerback 16.5403 0.89233 -6.15208
upperback 9.36365 -0.680446 -2.70311
thorax 0.738386 -0.908283 0.720085
lowerneck 5.88258 -0.428143 3.38908
upperneck -12.1419 -0.916454 -4.31469
head -4.63271 -0.419963 -1.82926
rclavicle -7.95139e-016 -1.47101e-014
rhumerus -25.03 -28.274 -34.465
rradius 31.8786
rwrist -37.6995
rhand -27.1185 -8.62276
rfingers 7.12502
rthumb -0.534497 -38.6018
lclavicle -7.95139e-016 -1.47101e-014
lhumerus -25.5286 23.7888 21.0595
lradius 32.7696
lwrist 16.5975
lhand -27.7108 34.0447
lfingers 7.12502
lthumb -1.10661 64.0216
rfemur -14.5272 7.68414 30.6214
rtibia 71.8363
rfoot -8.55987 -15.926
rtoes -31.6845
lfemur -14.7716 -6.09475 -18.3601
ltibia 38.1835
lfoot -24.0269 19.0572
ltoes -21.2157
340
root 27.8236 14.5759 9.76794 -526.994 -55.1481 -191.599
lowerback 16.5906 0.95123 -7.15968
upperback 9.15548 -0.785295 -3.12459
thorax 0.511174 -0.985185 0.858556
lowerneck 5.84889 -0.0843196 3.72981
upperneck -12.0105 -0.423342 -4.46403
head -4.56727 -0.182104 -1.95913
rclavicle -6.16232e-015 6.75868e-015
rhumerus -25.1028 -27.477 -31.7502
rradius 32.383
rwrist -37.5943
rhand -27.023 -9.07448
rfingers 7.12502
rthumb -0.442337 -39.0538
lclavicle -6.16232e-015 6.75868e-015
lhumerus -26.242 24.098 20.9037
lradius 32.5696
lwrist 16.3881
lhand -27.2347 33.8088
lfingers 7.12502
lthumb -0.646753 63.7876
rfemur -17.7501 6.88936 29.3632
rtibia 75.4359
rfoot -10.1414 -17.3322
rtoes -31.5102
lfemur -12.4019 -4.31486 -19.625
ltibia 37.8489
lfoot -25.1992 18.7627
ltoes -22.9486
341
root 27.4726 14.5374 9.6517 -526.665 -53.9497 -192.152
lowerback 16.59 0.922048 -7.88043
upperback 8.96183 -0.957624 -3.48595
thorax 0.327269 -1.08368 0.908988
lowerneck 5.67214 0.24137 4.01568
upperneck -11.904 0.032491 -4.5857
head -4.48465 0.0350414 -2.06789
rclavicle -8.66701e-014 1.19271e-015
rhumerus -25.2038 -27.0078 -29.0802
rradius 32.8623
rwrist -37.4169
rhand -27.0386 -9.44
rfingers 7.12502
rthumb -0.457347 -39.4193
lclavicle -8.66701e-014 1.19271e-015
lhumerus -26.7804 24.3957 21.0438
lradius 32.3709
lwrist 16.2466
lhand -26.8777 33.4268
lfingers 7.12502
lthumb -0.301979 63.4063
rfemur -21.1488 6.11921 28.3249
rtibia 77.861
rfoot -11.6618 -18.0186
rtoes -31.8059
lfemur -10.1025 -2.97423 -20.5959
ltibia 37.0912
lfoot -26.1535 18.1293
ltoes -23.1119
342
root 27.1234 14.5223 9.51983 -526.437 -53.0649 -192.4
lowerback 16.5508 0.784315 -8.26869
upperback 8.78862 -1.21178 -3.76461
thorax 0.185182 -1.21045 0.8735
lowerneck 5.40085 0.570323 4.23471
upperneck -11.8094 0.475638 -4.72704
head -4.38858 0.247808 -2.1691
rclavicle -3.97569e-015 -7.15625e-015
rhumerus -25.2655 -26.885 -26.522
rradius 33.3117
rwrist -37.223
rhand -27.2591 -9.71378
rfingers 7.12502
rthumb -0.670332 -39.6925
lclavicle -3.97569e-015 -7.15625e-015
lhumerus -27.2116 24.6711 21.4821
lradius 32.1885
lwrist 16.1611
lhand -26.4654 32.945
lfingers 7.12502
lthumb 0.0962375 62.9247
rfemur -24.5216 5.42888 27.5889
rtibia 78.9938
rfoot -13.0918 -18.2331
rtoes -32.3054
lfemur -7.77694 -2.3927 -21.2907
ltibia 35.9285
lfoot -26.6786 17.7502
ltoes -23.6841
343
root 26.7745 14.5312 9.37063 -526.47 -52.438 -192.23
lowerback 16.5029 0.56244 -8.28944
upperback 8.6438 -1.51003 -3.93443
thorax 0.0718347 -1.34691 0.755524
lowerneck 5.1104 0.902183 4.37678
upperneck -11.735 0.905985 -4.9114
head -4.29456 0.459095 -2.26853
rclavicle -2.78299e-014 -9.30312e-014
rhumerus -25.2558 -27.0612 -24.1174
rradius 33.7341
rwrist -37.0681
rhand -27.6954 -9.89721
rfingers 7.12502
rthumb -1.0917 -39.8742
lclavicle -2.78299e-014 -9.30312e-014
lhumerus -27.5897 24.9096 22.2135
lradius 32.0469
lwrist 16.075
lhand -25.9166 32.456
lfingers 7.12502
lthumb 0.626262 62.4348
rfemur -27.6157 4.94518 27.2336
rtibia 78.7815
rfoot -14.4556 -18.3926
rtoes -32.7074
lfemur -5.34943 -2.55931 -21.6951
ltibia 34.4245
lfoot -26.686 17.5574
ltoes -24.0164
344
root 26.4248 14.5653 9.20089 -526.634 -51.9419 -191.843
lowerback 16.4246 0.321671 -8.11379
upperback 8.52888 -1.79336 -4.03593
thorax -0.0015209 -1.47147 0.597235
lowerneck 4.86629 1.21448 4.43876
upperneck -11.6966 1.29961 -5.11456
head -4.22011 0.656892 -2.3579
rclavicle -4.69132e-014 3.10104e-014
rhumerus -25.1982 -27.4371 -21.9017
rradius 34.1503
rwrist -37.0113
rhand -28.3247 -10.0175
rfingers 7.12502
rthumb -1.69952 -39.9905
lclavicle -4.69132e-014 3.10104e-014
lhumerus -27.9105 25.0917 23.2144
lradius 31.9403
lwrist 15.9415
lhand -25.3968 31.9981
lfingers 7.12502
lthumb 1.12836 61.9749
rfemur -30.2666 4.77428 27.0709
rtibia 77.2679
rfoot -15.7349 -18.7671
rtoes -33.1691
lfemur -2.82982 -3.27549 -21.9956
ltibia 32.6769
lfoot -26.053 17.5931
ltoes -24.237
